<svg viewBox="0 0 24 24" fill="none" xmlns="http://www.w3.org/2000/svg">
  <path d="M15.34 3.27L14.58 6.18C14.58 6.18 13.82 5.82 12.88 5.82C11.5 5.82 11.42 6.64 11.42 6.82C11.42 7.82 14.52 8.28 14.52 10.96C14.52 13.1 13.16 14.42 11.26 14.42C8.98 14.42 7.82 13.02 7.82 13.02L8.42 11.02C8.42 11.02 9.62 12.06 10.58 12.06C11.22 12.06 11.48 11.56 11.48 11.18C11.48 9.88 8.98 9.82 8.98 7.38C8.98 5.34 10.5 3.38 13.32 3.38C14.42 3.38 15.34 3.27 15.34 3.27Z" stroke="currentColor" stroke-width="1.5" stroke-linecap="round" stroke-linejoin="round"/>
  <path d="M17 2L16.5 20.5L21 19L19 3.5L17 2Z" stroke="currentColor" stroke-width="1.5" stroke-linecap="round" stroke-linejoin="round"/>
  <path d="M13 2.5L13.5 1L17 2" stroke="currentColor" stroke-width="1.5" stroke-linecap="round" stroke-linejoin="round"/>
</svg>
