<svg viewBox="0 0 24 24" fill="none" xmlns="http://www.w3.org/2000/svg">
  <path d="M14.5 2C13.12 2 12 3.12 12 4.5V9.5H14.5C15.88 9.5 17 8.38 17 7V4.5C17 3.12 15.88 2 14.5 2Z" stroke="currentColor" stroke-width="1.5" stroke-linecap="round" stroke-linejoin="round"/>
  <path d="M2 14.5C2 15.88 3.12 17 4.5 17H9.5V14.5C9.5 13.12 8.38 12 7 12H4.5C3.12 12 2 13.12 2 14.5Z" stroke="currentColor" stroke-width="1.5" stroke-linecap="round" stroke-linejoin="round"/>
  <path d="M9.5 2C8.12 2 7 3.12 7 4.5V7C7 8.38 8.12 9.5 9.5 9.5H12V4.5C12 3.12 10.88 2 9.5 2Z" stroke="currentColor" stroke-width="1.5" stroke-linecap="round" stroke-linejoin="round"/>
  <path d="M22 9.5C22 8.12 20.88 7 19.5 7H17V9.5C17 10.88 18.12 12 19.5 12H22V9.5Z" stroke="currentColor" stroke-width="1.5" stroke-linecap="round" stroke-linejoin="round"/>
  <path d="M14.5 22C15.88 22 17 20.88 17 19.5V17H14.5C13.12 17 12 18.12 12 19.5C12 20.88 13.12 22 14.5 22Z" stroke="currentColor" stroke-width="1.5" stroke-linecap="round" stroke-linejoin="round"/>
  <path d="M2 9.5C2 10.88 3.12 12 4.5 12H7V9.5C7 8.12 5.88 7 4.5 7C3.12 7 2 8.12 2 9.5Z" stroke="currentColor" stroke-width="1.5" stroke-linecap="round" stroke-linejoin="round"/>
</svg>
