<svg viewBox="0 0 24 24" fill="none" xmlns="http://www.w3.org/2000/svg">
  <path d="M12 2C6.48 2 2 6.48 2 12C2 13.82 2.5 15.53 3.35 17L2 22L7.08 20.67C8.5 21.5 10.18 22 12 22C17.52 22 22 17.52 22 12C22 6.48 17.52 2 12 2Z" stroke="currentColor" stroke-width="1.5" stroke-linecap="round" stroke-linejoin="round"/>
  <path d="M8.5 10.5C8.5 10.5 9 8 10.5 8C12 8 12 9.5 12 9.5C12 9.5 12 11 10.5 12.5C9 14 8.5 14.5 8.5 14.5" stroke="currentColor" stroke-width="1.5" stroke-linecap="round"/>
  <path d="M12 14.5C12 14.5 14 14 14 12.5C14 11 12.5 11 12.5 11" stroke="currentColor" stroke-width="1.5" stroke-linecap="round"/>
</svg>
